<svg width="53" height="39" viewBox="0 0 53 39" fill="none" xmlns="http://www.w3.org/2000/svg">
<path d="M0 4C0 1.79086 1.79086 0 4 0L18 0V11H0L0 4Z" fill="url(#paint0_linear_510_14)"/>
<path d="M0 14H18V25H0L0 14Z" fill="url(#paint1_linear_510_14)"/>
<path d="M21 39V0H32V39H21Z" fill="url(#paint2_linear_510_14)"/>
<path d="M35 14H53V25H35V14Z" fill="url(#paint3_linear_510_14)"/>
<path d="M35 0L49 0C51.2091 0 53 1.79086 53 4V11H35V0Z" fill="url(#paint4_linear_510_14)"/>
<path d="M35 28H53V35C53 37.2091 51.2091 39 49 39H35V28Z" fill="url(#paint5_linear_510_14)"/>
<path d="M0 28H18V39H4C1.79086 39 0 37.2091 0 35L0 28Z" fill="url(#paint6_linear_510_14)"/>
<defs>
<linearGradient id="paint0_linear_510_14" x1="1.09596e-08" y1="1.5" x2="17.9996" y2="11.0008" gradientUnits="userSpaceOnUse">
<stop stop-color="#D9D9D9"/>
<stop offset="0.505208" stop-color="#D9D9D9" stop-opacity="0.5"/>
<stop offset="1" stop-color="#D9D9D9"/>
</linearGradient>
<linearGradient id="paint1_linear_510_14" x1="1.09596e-08" y1="15.5" x2="17.9996" y2="25.0008" gradientUnits="userSpaceOnUse">
<stop stop-color="#D9D9D9"/>
<stop offset="0.505208" stop-color="#D9D9D9" stop-opacity="0.5"/>
<stop offset="1" stop-color="#D9D9D9"/>
</linearGradient>
<linearGradient id="paint2_linear_510_14" x1="22.5" y1="39" x2="47.2094" y2="17.394" gradientUnits="userSpaceOnUse">
<stop stop-color="#D9D9D9"/>
<stop offset="0.505208" stop-color="#D9D9D9" stop-opacity="0.5"/>
<stop offset="1" stop-color="#D9D9D9"/>
</linearGradient>
<linearGradient id="paint3_linear_510_14" x1="35" y1="15.5" x2="52.9996" y2="25.0008" gradientUnits="userSpaceOnUse">
<stop stop-color="#D9D9D9"/>
<stop offset="0.505208" stop-color="#D9D9D9" stop-opacity="0.5"/>
<stop offset="1" stop-color="#D9D9D9"/>
</linearGradient>
<linearGradient id="paint4_linear_510_14" x1="35" y1="1.5" x2="52.9996" y2="11.0008" gradientUnits="userSpaceOnUse">
<stop stop-color="#D9D9D9"/>
<stop offset="0.505208" stop-color="#D9D9D9" stop-opacity="0.5"/>
<stop offset="1" stop-color="#D9D9D9"/>
</linearGradient>
<linearGradient id="paint5_linear_510_14" x1="35" y1="29.5" x2="52.9996" y2="39.0008" gradientUnits="userSpaceOnUse">
<stop stop-color="#D9D9D9"/>
<stop offset="0.505208" stop-color="#D9D9D9" stop-opacity="0.5"/>
<stop offset="1" stop-color="#D9D9D9"/>
</linearGradient>
<linearGradient id="paint6_linear_510_14" x1="1.09596e-08" y1="29.5" x2="17.9996" y2="39.0008" gradientUnits="userSpaceOnUse">
<stop stop-color="#D9D9D9"/>
<stop offset="0.505208" stop-color="#D9D9D9" stop-opacity="0.5"/>
<stop offset="1" stop-color="#D9D9D9"/>
</linearGradient>
</defs>
</svg>
