<svg width="51" height="37" viewBox="0 0 51 37" fill="none" xmlns="http://www.w3.org/2000/svg">
<path d="M0 4C0 1.79086 1.79086 0 4 0L18 0V11H0L0 4Z" fill="url(#paint0_linear_510_14)"/>
<path d="M0 13H18V24H0L0 13Z" fill="url(#paint1_linear_510_14)"/>
<path d="M20 37V0H31V37H20Z" fill="url(#paint2_linear_510_14)"/>
<path d="M33 13H51V24H33V13Z" fill="url(#paint3_linear_510_14)"/>
<path d="M33 0L47 0C49.2091 0 51 1.79086 51 4V11H33V0Z" fill="url(#paint4_linear_510_14)"/>
<path d="M33 26H51V33C51 35.2091 49.2091 37 47 37H33V26Z" fill="url(#paint5_linear_510_14)"/>
<path d="M0 26H18V37H4C1.79086 37 0 35.2091 0 33L0 26Z" fill="url(#paint6_linear_510_14)"/>
<defs>
<linearGradient id="paint0_linear_510_14" x1="1.09596e-08" y1="1.5" x2="17.9996" y2="11.0008" gradientUnits="userSpaceOnUse">
<stop stop-color="#D9D9D9"/>
<stop offset="0.505208" stop-color="#D9D9D9" stop-opacity="0.5"/>
<stop offset="1" stop-color="#D9D9D9"/>
</linearGradient>
<linearGradient id="paint1_linear_510_14" x1="1.09596e-08" y1="14.5" x2="17.9996" y2="24.0008" gradientUnits="userSpaceOnUse">
<stop stop-color="#D9D9D9"/>
<stop offset="0.505208" stop-color="#D9D9D9" stop-opacity="0.5"/>
<stop offset="1" stop-color="#D9D9D9"/>
</linearGradient>
<linearGradient id="paint2_linear_510_14" x1="21.5" y1="37" x2="45.0752" y2="15.2715" gradientUnits="userSpaceOnUse">
<stop stop-color="#D9D9D9"/>
<stop offset="0.505208" stop-color="#D9D9D9" stop-opacity="0.5"/>
<stop offset="1" stop-color="#D9D9D9"/>
</linearGradient>
<linearGradient id="paint3_linear_510_14" x1="33" y1="14.5" x2="50.9996" y2="24.0008" gradientUnits="userSpaceOnUse">
<stop stop-color="#D9D9D9"/>
<stop offset="0.505208" stop-color="#D9D9D9" stop-opacity="0.5"/>
<stop offset="1" stop-color="#D9D9D9"/>
</linearGradient>
<linearGradient id="paint4_linear_510_14" x1="33" y1="1.5" x2="50.9996" y2="11.0008" gradientUnits="userSpaceOnUse">
<stop stop-color="#D9D9D9"/>
<stop offset="0.505208" stop-color="#D9D9D9" stop-opacity="0.5"/>
<stop offset="1" stop-color="#D9D9D9"/>
</linearGradient>
<linearGradient id="paint5_linear_510_14" x1="33" y1="27.5" x2="50.9996" y2="37.0008" gradientUnits="userSpaceOnUse">
<stop stop-color="#D9D9D9"/>
<stop offset="0.505208" stop-color="#D9D9D9" stop-opacity="0.5"/>
<stop offset="1" stop-color="#D9D9D9"/>
</linearGradient>
<linearGradient id="paint6_linear_510_14" x1="1.09596e-08" y1="27.5" x2="17.9996" y2="37.0008" gradientUnits="userSpaceOnUse">
<stop stop-color="#D9D9D9"/>
<stop offset="0.505208" stop-color="#D9D9D9" stop-opacity="0.5"/>
<stop offset="1" stop-color="#D9D9D9"/>
</linearGradient>
</defs>
</svg>
