<svg class="svg-icon" style="width: 1em; height: 1em;vertical-align: middle;fill: white;overflow: hidden;" viewBox="0 0 1024 1024" version="1.1" xmlns="http://www.w3.org/2000/svg"><path d="M512 170.65984q130.99008 0 254.99648 45.99808t224.99328 135.33184q14.336 12.32896 14.336 32.01024 0 16.67072-10.67008 28.32384l-2.00704 2.00704q-12.32896 12.32896-30.0032 12.32896-16.67072 0-28.32384-10.67008-89.00608-78.66368-198.49216-119.33696t-224.82944-40.67328-224.82944 40.67328-198.49216 119.33696q-11.6736 10.67008-28.32384 10.67008-19.6608 0-32.01024-14.336-10.67008-11.6736-10.67008-28.32384 0-19.6608 14.336-32.01024 101.33504-89.33376 225.15712-135.33184t254.83264-45.99808zM512.32768 682.65984q57.99936 0 107.66336 29.32736 9.99424 6.00064 15.6672 15.83104t5.67296 21.17632-6.00064 21.34016q-2.99008 4.99712-6.67648 8.66304-12.32896 12.32896-30.33088 12.32896-12.00128 0-21.34016-5.67296-30.33088-17.67424-64.67584-17.67424-34.67264 0-65.00352 17.67424-10.67008 6.00064-21.66784 6.00064-24.33024 0-37.00736-20.992-6.00064-9.99424-6.00064-21.34016 0-24.33024 20.992-37.00736 50.33984-29.67552 108.66688-29.67552zM512 427.008q80.67072 0 156.99968 26.66496t140.00128 78.99136q15.6672 12.67712 15.6672 32.99328 0 15.33952-9.66656 26.99264-2.00704 2.6624-2.6624 3.33824-12.32896 12.32896-30.0032 12.32896-15.6672 0-27.3408-9.66656-51.99872-42.65984-114.66752-64.67584t-128.32768-21.99552-128.32768 21.99552-114.66752 64.67584q-11.6736 9.66656-26.99264 9.66656-20.33664 0-32.99328-15.6672-9.66656-11.6736-9.66656-26.99264 0-20.33664 15.6672-32.99328 63.32416-52.3264 140.00128-78.99136t156.99968-26.66496z"  /></svg>