<svg width="800" height="576" viewBox="0 0 800 576" fill="none" xmlns="http://www.w3.org/2000/svg">
<path d="M49.9993 0.488281H750.001C777.601 0.488281 800 22.8872 800 50.5123V525.513C800 553.113 777.601 575.512 750.001 575.512H49.9993C22.3743 575.515 0 553.113 0 525.515V50.5123C0 22.8872 22.3989 0.488281 49.9993 0.488281Z" fill="#26A6D1"/>
<path d="M129 200.488L49.999 375.314H144.574L156.299 347.44H183.098L194.823 375.314H298.923V354.04L308.199 375.314H362.048L371.324 353.59V375.314H587.825L614.151 348.164L638.801 375.314L750 375.539L670.75 288.389L750 200.488H640.526L614.899 227.137L591.025 200.488H355.501L335.276 245.612L314.577 200.488H220.2V221.039L209.701 200.488H129ZM147.3 225.314H193.4L245.801 343.864V225.314H296.302L336.776 310.314L374.077 225.314H424.326V350.763H393.751L393.501 252.462L348.926 350.763H321.575L276.749 252.462V350.763H213.849L201.925 322.639H137.5L125.6 350.738H91.8986L147.3 225.314ZM452.3 225.314H576.625L614.65 266.388L653.901 225.314H691.926L634.151 288.365L691.926 350.689H652.176L614.151 309.138L574.7 350.689H452.3V225.314ZM169.726 246.539L148.501 296.64H190.927L169.726 246.539ZM483.001 251.288V274.189H550.826V299.714H483.001V324.715H559.076L594.425 287.89L560.576 251.266H483.001V251.288Z" fill="white"/>
</svg>
